<?xml version="1.0"?>
<svg xmlns="http://www.w3.org/2000/svg" xmlns:xlink="http://www.w3.org/1999/xlink" version="1.1" id="Capa_1" x="0px" y="0px" viewBox="0 0 512 512" style="enable-background:new 0 0 512 512;" xml:space="preserve" width="512px" height="512px" class=""><g><g>
	<g>
		<path d="M448,443.077h-4.923V234.995c0-88.71-69.917-161.398-157.538-165.855V39.385c0-5.438-4.409-9.846-9.846-9.846h-9.846    V9.846C265.846,4.408,261.437,0,256,0c-5.437,0-9.846,4.408-9.846,9.846v19.692h-9.846c-5.437,0-9.846,4.408-9.846,9.846V69.14    C138.84,73.596,68.923,146.284,68.923,234.995v208.082H64c-19.002,0-34.462,15.459-34.462,34.462    C29.538,496.541,44.998,512,64,512h384c19.002,0,34.462-15.459,34.462-34.462C482.462,458.536,467.002,443.077,448,443.077z     M246.154,49.231h19.692v19.692h-19.692V49.231z M246.154,88.615h19.692v98.462h-19.692V88.615z M88.615,423.385h49.231    c5.437,0,9.846-4.408,9.846-9.846s-4.409-9.846-9.846-9.846H88.615V234.995c0-77.849,61.088-141.689,137.846-146.124v108.052    c0,5.438,4.409,9.846,9.846,9.846h9.846v29.538c0,5.438,4.409,9.846,9.846,9.846c5.437,0,9.846-4.408,9.846-9.846v-29.538h9.846    c5.437,0,9.846-4.408,9.846-9.846V88.87c76.758,4.435,137.846,68.275,137.846,146.124v208.083H88.615V423.385z M448,492.308H64    c-8.144,0-14.769-6.625-14.769-14.769S55.856,462.769,64,462.769h384c8.144,0,14.769,6.625,14.769,14.769    S456.144,492.308,448,492.308z" data-original="#000000" class="active-path" data-old_color="#000000" fill="#0091A2"/>
	</g>
</g><g>
	<g>
		<path d="M174.345,406.577c-1.83-1.831-4.371-2.885-6.96-2.885c-2.59,0-5.13,1.054-6.961,2.885    c-1.831,1.831-2.885,4.372-2.885,6.961s1.053,5.13,2.885,6.961c1.832,1.831,4.372,2.885,6.961,2.885c2.59,0,5.13-1.054,6.96-2.885    c1.831-1.831,2.886-4.372,2.886-6.961S176.177,408.409,174.345,406.577z" data-original="#000000" class="active-path" data-old_color="#000000" fill="#0091A2"/>
	</g>
</g></g> </svg>
