<?xml version="1.0"?>
<svg xmlns="http://www.w3.org/2000/svg" id="Layer_1" enable-background="new 0 0 513.773 513.773" height="512px" viewBox="0 0 513.773 513.773" width="512px" class=""><g><g><g><path d="m238.602 262.399-.105-61.782 11.931 59.407c.784 3.904 2.692 7.494 5.489 10.329l67.223 68.137c7.929 8.036 20.867 8.123 28.903.195 8.035-7.927 8.123-20.868.195-28.903l-62.936-63.792-10.729-53.421 18.292 43.913 63.959 64.829c9.113 9.237 11.561 22.549 7.393 33.98l.19.846c9.229 18.567 14.066 39.266 13.659 60.935l4.078 18.19c5.667-1.959 11.74-3.037 18.064-3.037 12.887 0 24.751 4.431 34.176 11.833l-28.825-128.59c-1.378-6.145-5.001-11.303-9.879-14.718 6.912-3.277 11.704-10.298 11.704-18.457 0-11.288-9.15-20.438-20.438-20.438h-71.916v-91.996c0-15.777-12.79-28.568-28.568-28.568h-57.997c-28.715 0-51.994 23.278-51.994 51.994v109.705c17.151-10.786 36.949-17.727 58.181-19.611-.018-.325-.049-.652-.05-.98z" data-original="#000000" class="active-path" data-old_color="#000000" fill="#009BAD"/><ellipse cx="286.579" cy="55.477" rx="55.475" ry="55.475" transform="matrix(.861 -.508 .508 .861 11.55 153.273)" data-original="#000000" class="active-path" data-old_color="#000000" fill="#009BAD"/><path d="m167.5 292.287-18.955-119.678c-1.347-8.502-8.677-14.762-17.285-14.762h-38.371c-9.665 0-17.5 7.835-17.5 17.5s7.835 17.5 17.5 17.5h23.425l21.207 133.897c7.935-13.156 18.105-24.816 29.979-34.457z" data-original="#000000" class="active-path" data-old_color="#000000" fill="#009BAD"/><path d="m369.599 394.563c0-16.612-3.42-32.439-9.586-46.82-8.074 7.641-19.083 10.349-29.241 8.146 5.655 11.706 8.827 24.827 8.827 38.675 0 49.191-40.02 89.211-89.21 89.211s-89.21-40.02-89.21-89.211c0-49.19 40.02-89.21 89.21-89.21 9.537 0 18.727 1.51 27.35 4.294l-30.408-30.821-3.261-3.305c-62.807 3.296-112.891 55.43-112.891 119.042 0 65.733 53.478 119.211 119.21 119.211s119.21-53.479 119.21-119.212z" data-original="#000000" class="active-path" data-old_color="#000000" fill="#009BAD"/><path d="m250.388 368.853c-14.199 0-25.71 11.511-25.71 25.71 0 14.2 11.511 25.71 25.71 25.71s25.71-11.511 25.71-25.71c.001-14.2-11.51-25.71-25.71-25.71z" data-original="#000000" class="active-path" data-old_color="#000000" fill="#009BAD"/></g><path d="m394.132 426.113c-23.407 0-42.45 19.043-42.45 42.45s19.043 42.45 42.45 42.45 42.45-19.043 42.45-42.45c.001-23.407-19.042-42.45-42.45-42.45zm-17.45 42.45c0-9.622 7.828-17.45 17.45-17.45s17.45 7.828 17.45 17.45-7.828 17.45-17.45 17.45-17.45-7.828-17.45-17.45z" data-original="#000000" class="active-path" data-old_color="#000000" fill="#009BAD"/></g></g> </svg>
